<svg xmlns="http://www.w3.org/2000/svg" width="128" height="128" viewBox="0 0 128 128">
  <title>PORTFOLIO</title>
  <path d="M117.193,29.24H84.267V13.752A1.751,1.751,0,0,0,82.517,12H45.483a1.751,1.751,0,0,0-1.75,1.75V29.24H10.807a6.257,6.257,0,0,0-6.25,6.25v74.258a6.257,6.257,0,0,0,6.25,6.25H117.193a6.257,6.257,0,0,0,6.25-6.25V35.49A6.257,6.257,0,0,0,117.193,29.24ZM47.233,15.5H80.767V29.24h-3.3V20.548a1.751,1.751,0,0,0-1.75-1.75H52.278a1.751,1.751,0,0,0-1.75,1.75V29.24h-3.3Zm6.8,13.738V22.3H73.972V29.24Zm-43.221,3.5H117.193a2.754,2.754,0,0,1,2.75,2.75V55.919L100.8,70.869H93.038a29.09,29.09,0,0,0-58.076,0H27.205L8.057,55.919V35.49A2.754,2.754,0,0,1,10.807,32.74ZM64,74.911a7.482,7.482,0,1,1,7.481-7.482A7.489,7.489,0,0,1,64,74.911Zm0,3.5a10.918,10.918,0,0,0,4.168-.827l7.793,3.033a4.949,4.949,0,0,1,3.173,4.641v7.986a25.523,25.523,0,0,1-30.268,0V85.258a4.948,4.948,0,0,1,3.173-4.641l7.793-3.033A10.918,10.918,0,0,0,64,78.411Zm13.23-1.056-5.5-2.139a10.981,10.981,0,1,0-15.467,0l-5.5,2.139a8.428,8.428,0,0,0-5.4,7.9v4.881a25.6,25.6,0,1,1,37.268,0V85.258A8.428,8.428,0,0,0,77.23,77.355ZM117.193,112.5H10.807a2.754,2.754,0,0,1-2.75-2.75V60.36L25.526,74a1.745,1.745,0,0,0,1.077.371h8.359a29.09,29.09,0,0,0,58.076,0H101.4A1.747,1.747,0,0,0,102.474,74L119.943,60.36v49.388A2.754,2.754,0,0,1,117.193,112.5Z"/>
</svg>
